<svg preserveAspectRatio="xMidYMid slice" id="floor--svg"  viewBox="0 0 1920 1080" version="1.0" xmlns="http://www.w3.org/2000/svg"><polygon data-id="12147" data-sec="1" data-build="1" data-floor="1" class="s3d-svg__house js-s3d-svg__house" points="1138.6999969482,880.40002441406,1233.1999969482,899.90002441406,1264.1999969482,898.40002441406,1482.1999969482,780.40002441406,1500.1999969482,723.90002441406,1499.1999969482,718.90002441406,1240.1999969482,830.40002441406,1142.6999969482,815.40002441406"></polygon><polygon data-id="12146" data-sec="1" data-build="1" data-floor="1" class="s3d-svg__house js-s3d-svg__house" points="1142.1999969482,815.90002441406,1138.1999969482,881.90002441406,869.19999694824,828.40002441406,867.19999694824,764.40002441406"></polygon><polygon data-id="12148" data-sec="1" data-build="1" data-floor="2" class="s3d-svg__house js-s3d-svg__house" points="1508.1999969482,669.40002441406,1501.6999969482,719.40002441406,1237.6999969482,830.90002441406,1141.1999969482,815.90002441406,493.19999694824,691.90002441406,485.69999694824,641.40002441406,552.19999694824,647.90002441406,605.69999694824,643.90002441406,867.19999694824,687.40002441406,866.69999694824,725.90002441406,1243.1999969482,778.90002441406"></polygon><polygon data-id="12149" data-sec="1" data-build="1" data-floor="3" class="s3d-svg__house js-s3d-svg__house" points="1507.6999969482,671.40002441406,1243.1999969482,778.90002441406,867.19999694824,726.90002441406,866.19999694824,688.40002441406,604.69999694824,644.90002441406,611.19999694824,600.90002441406,865.19999694824,636.40002441406,866.19999694824,667.40002441406,1248.6999969482,725.90002441406,1511.6999969482,627.40002441406"></polygon><polygon data-id="12158" data-sec="1" data-build="1" data-floor="4" class="s3d-svg__house js-s3d-svg__house" points="1380.1999969482,630.90002441406,1377.6999969482,677.40002441406,1247.1999969482,727.40002441406,1089.1999969482,702.90002441406,1092.6999969482,648.40002441406,1253.6999969482,674.40002441406"></polygon><polygon data-id="12157" data-sec="1" data-build="1" data-floor="4" class="s3d-svg__house js-s3d-svg__house" points="1379.1999969482,631.90002441406,1376.6999969482,678.40002441406,1509.6999969482,627.90002441406,1492.6999969482,620.40002441406,1494.1999969482,593.90002441406"></polygon><polygon data-id="12159" data-sec="1" data-build="1" data-floor="4" class="s3d-svg__house js-s3d-svg__house" points="1091.1999969482,648.90002441406,1089.6999969482,702.40002441406,866.19999694824,668.40002441406,864.69999694824,616.40002441406"></polygon><polygon data-id="12150" data-sec="1" data-build="1" data-floor="4" class="s3d-svg__house js-s3d-svg__house" points="864.19999694824,588.90002441406,865.19999694824,637.90002441406,611.19999694824,601.90002441406,607.69999694824,551.90002441406"></polygon><polygon data-id="12151" data-sec="1" data-build="1" data-floor="4" class="s3d-svg__house js-s3d-svg__house" points="607.19999694824,551.90002441406,611.19999694824,601.40002441406,552.69999694824,648.90002441406,486.19999694824,641.90002441406,481.19999694824,590.40002441406,548.69999694824,597.90002441406"></polygon><polygon data-id="11895" data-sec="1" data-build="1" data-floor="5" class="s3d-svg__house js-s3d-svg__house" points="1408.1999969482,569.90002441406,1403.1999969482,623.90002441406,1253.6999969482,675.40002441406,1091.1999969482,648.90002441406,1096.6999969482,601.40002441406,1257.1999969482,622.40002441406"></polygon><polygon data-id="11896" data-sec="1" data-build="1" data-floor="5" class="s3d-svg__house js-s3d-svg__house" points="1097.1999969482,601.90002441406,1091.6999969482,649.90002441406,864.69999694824,618.40002441406,865.19999694824,570.40002441406"></polygon><polygon data-id="12160" data-sec="1" data-build="1" data-floor="5" class="s3d-svg__house js-s3d-svg__house" points="863.19999694824,588.90002441406,862.19999694824,534.90002441406,602.69999694824,501.90002441406,606.69999694824,552.90002441406"></polygon><polygon data-id="12161" data-sec="1" data-build="1" data-floor="5" class="s3d-svg__house js-s3d-svg__house" points="602.69999694824,492.90002441406,608.69999694824,553.40002441406,549.69999694824,598.40002441406,482.69999694824,590.90002441406,483.69999694824,586.40002441406,430.19999694824,553.90002441406,426.69999694824,521.40002441406,542.69999694824,537.90002441406"></polygon><polygon data-id="11894" data-sec="1" data-build="1" data-floor="5" class="s3d-svg__house js-s3d-svg__house" points="1407.1999969482,570.90002441406,1403.6999969482,623.90002441406,1495.1999969482,595.40002441406,1504.6999969482,536.40002441406"></polygon><polygon data-id="11899" data-sec="1" data-build="1" data-floor="6" class="s3d-svg__house js-s3d-svg__house" points="1412.6999969482,513.90002441406,1407.1999969482,569.90002441406,1256.6999969482,622.90002441406,1099.1999969482,601.90002441406,1101.1999969482,545.40002441406,1261.6999969482,565.90002441406"></polygon><polygon data-id="11898" data-sec="1" data-build="1" data-floor="6" class="s3d-svg__house js-s3d-svg__house" points="1412.6999969482,515.40002441406,1408.1999969482,570.40002441406,1505.1999969482,536.90002441406,1511.6999969482,483.40002441406"></polygon><polygon data-id="11900" data-sec="1" data-build="1" data-floor="6" class="s3d-svg__house js-s3d-svg__house" points="1100.6999969482,544.90002441406,1099.1999969482,603.90002441406,865.19999694824,570.90002441406,862.69999694824,514.90002441406"></polygon><polygon data-id="12165" data-sec="1" data-build="1" data-floor="6" class="s3d-svg__house js-s3d-svg__house" points="862.19999694824,483.90002441406,861.19999694824,534.40002441406,603.19999694824,503.40002441406,596.69999694824,450.40002441406"></polygon><polygon data-id="12166" data-sec="1" data-build="1" data-floor="6" class="s3d-svg__house js-s3d-svg__house" points="596.69999694824,450.40002441406,601.69999694824,494.40002441406,542.19999694824,540.90002441406,427.19999694824,523.40002441406,447.69999694824,504.90002441406,448.69999694824,491.90002441406,468.69999694824,477.90002441406,463.19999694824,475.90002441406,463.19999694824,471.40002441406,475.19999694824,463.90002441406,486.19999694824,459.40002441406,489.19999694824,459.90002441406,487.69999694824,436.40002441406"></polygon><polygon data-id="11903" data-sec="1" data-build="1" data-floor="7" class="s3d-svg__house js-s3d-svg__house" points="1419.1999969482,449.90002441406,1413.1999969482,516.90002441406,1261.6999969482,566.90002441406,1100.6999969482,546.40002441406,1102.6999969482,475.90002441406,1266.6999969482,495.40002441406"></polygon><polygon data-id="11902" data-sec="1" data-build="1" data-floor="7" class="s3d-svg__house js-s3d-svg__house" points="1419.1999969482,450.40002441406,1411.6999969482,516.40002441406,1511.6999969482,483.90002441406,1521.1999969482,419.40002441406"></polygon><polygon data-id="11904" data-sec="1" data-build="1" data-floor="7" class="s3d-svg__house js-s3d-svg__house" points="1101.6999969482,475.90002441406,1101.1999969482,546.40002441406,863.19999694824,516.90002441406,862.69999694824,448.90002441406"></polygon><polygon data-id="12170" data-sec="1" data-build="1" data-floor="7" class="s3d-svg__house js-s3d-svg__house" points="866.19999694824,407.90002441406,865.19999694824,445.90002441406,861.69999694824,449.90002441406,861.69999694824,483.90002441406,670.69999694824,458.90002441406,683.19999694824,387.90002441406"></polygon><polygon data-id="12171" data-sec="1" data-build="1" data-floor="7" class="s3d-svg__house js-s3d-svg__house" points="682.69999694824,387.40002441406,670.69999694824,459.90002441406,487.69999694824,437.90002441406,485.19999694824,426.90002441406,515.69999694824,367.40002441406"></polygon><polygon data-id="11907" data-sec="1" data-build="1" data-floor="8" class="s3d-svg__house js-s3d-svg__house" points="1267.1999969482,496.90002441406,1387.6999969482,459.40002441406,1391.1999969482,355.40002441406,1264.1999969482,388.40002441406,1119.1999969482,376.40002441406,1112.1999969482,375.40002441406,1107.1999969482,374.90002441406,1103.1999969482,475.40002441406"></polygon><polygon data-id="11906" data-sec="1" data-build="1" data-floor="8" class="s3d-svg__house js-s3d-svg__house" points="1390.6999969482,355.90002441406,1388.1999969482,460.40002441406,1521.6999969482,419.90002441406,1516.6999969482,415.90002441406,1518.1999969482,391.90002441406,1456.1999969482,370.90002441406,1460.6999969482,332.40002441406,1449.1999969482,329.90002441406,1440.6999969482,333.90002441406"></polygon><polygon data-id="11908" data-sec="1" data-build="1" data-floor="8" class="s3d-svg__house js-s3d-svg__house" points="1107.1999969482,375.40002441406,1102.1999969482,476.90002441406,946.19999694824,457.90002441406,947.19999694824,372.90002441406,958.19999694824,360.90002441406"></polygon><polygon data-id="12174" data-sec="1" data-build="1" data-floor="8" class="s3d-svg__house js-s3d-svg__house" points="863.19999694824,315.90002441406,863.19999694824,406.90002441406,515.19999694824,365.90002441406,528.69999694824,355.90002441406,535.19999694824,339.90002441406,602.19999694824,299.90002441406,599.19999694824,293.40002441406,605.19999694824,289.40002441406"></polygon><polygon data-id="12177" data-sec="1" data-build="1" data-floor="9" class="s3d-svg__house js-s3d-svg__house" points="605.69999694824,289.5,863.19999694824,316.5,947.19999694824,325.5,993.19999694824,283,990.19999694824,339,957.19999694824,361,1263.6999969482,388,1441.1999969482,333.5,1449.1999969482,329.5,1231.6999969482,259.5,1119.1999969482,249.5,1117.1999969482,233.5,1124.6999969482,223.5,1087.6999969482,212.5,1088.6999969482,200,1026.6999969482,179.5,791.19999694824,163,736.19999694824,193,723.19999694824,196.5"></polygon></svg>