<svg preserveAspectRatio="xMidYMid slice" id="floor--svg"  viewBox="0 0 1920 1080" version="1.0" xmlns="http://www.w3.org/2000/svg"><polygon data-id="11894" data-sec="1" data-build="1" data-floor="5" class="s3d-svg__house js-s3d-svg__house" points="245.19999694824,574.40002441406,256.69999694824,627.90002441406,421.69999694824,627.90002441406,424.69999694824,633.90002441406,430.19999694824,647.90002441406,435.69999694824,653.90002441406,446.69999694824,659.90002441406,458.69999694824,664.40002441406,477.69999694824,666.90002441406,497.19999694824,667.40002441406,507.19999694824,667.40002441406,517.19999694824,665.90002441406,526.19999694824,663.40002441406,537.19999694824,661.40002441406,546.69999694824,656.90002441406,557.19999694824,653.40002441406,565.69999694824,647.40002441406,574.69999694824,642.40002441406,580.19999694824,637.90002441406,583.69999694824,633.40002441406,585.19999694824,629.40002441406,587.19999694824,623.90002441406,579.69999694824,573.90002441406,575.69999694824,581.90002441406,567.19999694824,587.90002441406,556.69999694824,595.40002441406,545.19999694824,599.90002441406,526.69999694824,605.90002441406,512.69999694824,609.40002441406,495.19999694824,611.40002441406,471.19999694824,611.90002441406,452.69999694824,608.90002441406,436.19999694824,603.90002441406,429.19999694824,600.40002441406,421.69999694824,592.40002441406,415.69999694824,580.90002441406,415.69999694824,569.90002441406"></polygon><polygon data-id="11893" data-sec="1" data-build="1" data-floor="5" class="s3d-svg__house js-s3d-svg__house" points="579.69999694824,574.09997558594,587.19999694824,627.09997558594,756.19999694824,626.59997558594,759.19999694824,627.59997558594,765.69999694824,577.59997558594,851.19999694824,579.59997558594,849.69999694824,527.59997558594,764.19999694824,528.59997558594,755.19999694824,573.09997558594"></polygon><polygon data-id="12164" data-sec="1" data-build="1" data-floor="5" class="s3d-svg__house js-s3d-svg__house" points="850.69999694824,528.59997558594,850.69999694824,580.59997558594,1193.6999969482,579.59997558594,1199.6999969482,595.59997558594,1262.6999969482,597.09997558594,1267.1999969482,543.09997558594,1203.1999969482,542.09997558594,1197.1999969482,527.59997558594"></polygon><polygon data-id="12163" data-sec="1" data-build="1" data-floor="5" class="s3d-svg__house js-s3d-svg__house" points="1343.1999969482,543.59997558594,1338.1999969482,597.59997558594,1485.1999969482,596.59997558594,1522.6999969482,578.09997558594,1526.1999969482,577.59997558594,1534.1999969482,579.59997558594,1546.6999969482,580.09997558594,1560.6999969482,579.59997558594,1565.1999969482,577.59997558594,1574.6999969482,572.59997558594,1576.6999969482,564.09997558594,1576.6999969482,558.59997558594,1576.1999969482,553.59997558594,1605.1999969482,538.59997558594,1604.1999969482,533.59997558594,1598.6999969482,529.09997558594,1605.6999969482,493.59997558594,1586.6999969482,505.09997558594,1584.1999969482,519.09997558594,1575.6999969482,526.59997558594,1561.1999969482,528.59997558594,1544.6999969482,528.09997558594,1534.6999969482,525.59997558594,1532.6999969482,526.59997558594,1493.1999969482,543.59997558594"></polygon><polygon data-id="11898" data-sec="1" data-build="1" data-floor="6" class="s3d-svg__house js-s3d-svg__house" points="233.69999694824,519.59997558594,244.69999694824,575.59997558594,415.69999694824,571.59997558594,414.69999694824,581.59997558594,421.69999694824,592.59997558594,428.69999694824,602.09997558594,436.69999694824,605.09997558594,452.69999694824,610.09997558594,471.19999694824,613.09997558594,494.69999694824,612.09997558594,513.69999694824,609.59997558594,526.19999694824,606.09997558594,545.19999694824,600.59997558594,557.19999694824,596.59997558594,569.19999694824,589.09997558594,575.19999694824,583.59997558594,580.19999694824,573.09997558594,575.69999694824,521.09997558594,568.69999694824,527.09997558594,557.19999694824,535.09997558594,530.19999694824,546.59997558594,507.19999694824,552.59997558594,492.69999694824,553.59997558594,465.19999694824,555.09997558594,435.19999694824,550.09997558594,419.69999694824,544.09997558594,408.69999694824,531.59997558594,406.69999694824,518.09997558594"></polygon><polygon data-id="11897" data-sec="1" data-build="1" data-floor="6" class="s3d-svg__house js-s3d-svg__house" points="575.19999694824,519.59997558594,579.19999694824,573.59997558594,755.19999694824,573.09997558594,763.69999694824,528.59997558594,849.19999694824,528.09997558594,846.19999694824,473.59997558594,762.19999694824,473.59997558594,752.19999694824,517.59997558594"></polygon><polygon data-id="12169" data-sec="1" data-build="1" data-floor="6" class="s3d-svg__house js-s3d-svg__house" points="845.69999694824,474.09997558594,849.69999694824,529.59997558594,1196.1999969482,528.09997558594,1202.6999969482,542.59997558594,1267.1999969482,544.09997558594,1273.1999969482,487.59997558594,1207.1999969482,489.59997558594,1202.6999969482,473.09997558594"></polygon><polygon data-id="12168" data-sec="1" data-build="1" data-floor="6" class="s3d-svg__house js-s3d-svg__house" points="1349.1999969482,491.09997558594,1343.1999969482,545.09997558594,1491.6999969482,545.59997558594,1532.6999969482,528.09997558594,1535.1999969482,525.59997558594,1545.1999969482,529.59997558594,1561.1999969482,529.59997558594,1576.1999969482,527.09997558594,1584.1999969482,521.09997558594,1586.1999969482,505.59997558594,1613.6999969482,490.09997558594,1613.6999969482,483.59997558594,1607.1999969482,478.09997558594,1615.1999969482,443.09997558594,1594.6999969482,451.09997558594,1595.6999969482,461.59997558594,1587.6999969482,471.59997558594,1577.1999969482,475.09997558594,1552.1999969482,474.59997558594,1546.6999969482,472.59997558594,1503.1999969482,489.59997558594"></polygon><polygon data-id="11902" data-sec="1" data-build="1" data-floor="7" class="s3d-svg__house js-s3d-svg__house" points="218.19999694824,452.59997558594,233.19999694824,520.59997558594,406.69999694824,519.09997558594,409.19999694824,533.59997558594,419.69999694824,545.59997558594,435.19999694824,550.59997558594,464.69999694824,557.09997558594,492.69999694824,555.59997558594,506.69999694824,553.59997558594,528.69999694824,548.09997558594,557.69999694824,535.59997558594,568.69999694824,528.09997558594,575.69999694824,522.09997558594,568.69999694824,450.09997558594,560.69999694824,459.09997558594,532.69999694824,471.59997558594,491.19999694824,483.59997558594,443.19999694824,483.59997558594,406.69999694824,473.59997558594,399.19999694824,465.09997558594,397.69999694824,455.59997558594,399.19999694824,450.09997558594"></polygon><polygon data-id="11901" data-sec="1" data-build="1" data-floor="7" class="s3d-svg__house js-s3d-svg__house" points="568.69999694824,451.59997558594,575.19999694824,521.09997558594,752.19999694824,519.59997558594,761.19999694824,475.09997558594,846.19999694824,475.09997558594,847.19999694824,396.09997558594,759.19999694824,396.59997558594,748.69999694824,451.09997558594"></polygon><polygon data-id="12173" data-sec="1" data-build="1" data-floor="7" class="s3d-svg__house js-s3d-svg__house" points="847.19999694824,396.59997558594,845.69999694824,476.09997558594,1202.6999969482,474.09997558594,1207.1999969482,489.59997558594,1273.6999969482,489.09997558594,1277.6999969482,423.59997558594,1214.1999969482,425.09997558594,1203.6999969482,398.59997558594"></polygon><polygon data-id="12172" data-sec="1" data-build="1" data-floor="7" class="s3d-svg__house js-s3d-svg__house" points="1349.1999969482,491.59997558594,1503.1999969482,491.09997558594,1545.1999969482,473.09997558594,1552.6999969482,476.59997558594,1576.1999969482,475.59997558594,1588.6999969482,473.59997558594,1594.6999969482,463.59997558594,1595.1999969482,455.09997558594,1594.1999969482,451.09997558594,1622.1999969482,439.59997558594,1622.1999969482,433.59997558594,1622.1999969482,430.59997558594,1615.6999969482,426.59997558594,1602.1999969482,422.59997558594,1603.1999969482,408.09997558594,1514.1999969482,374.59997558594,1435.1999969482,403.59997558594,1419.1999969482,365.59997558594,1360.1999969482,385.09997558594"></polygon><polygon data-id="12157" data-sec="1" data-build="1" data-floor="4" class="s3d-svg__house js-s3d-svg__house" points="257.19999694824,628.59997558594,267.19999694824,681.09997558594,431.69999694824,679.59997558594,435.19999694824,693.09997558594,442.69999694824,705.09997558594,454.69999694824,712.09997558594,473.19999694824,718.59997558594,498.69999694824,719.59997558594,533.69999694824,715.59997558594,556.69999694824,708.59997558594,571.19999694824,701.59997558594,581.69999694824,694.59997558594,590.19999694824,685.59997558594,595.19999694824,680.09997558594,587.19999694824,627.59997558594,584.69999694824,630.09997558594,582.69999694824,634.59997558594,578.69999694824,640.09997558594,575.19999694824,642.59997558594,565.19999694824,649.09997558594,545.19999694824,659.09997558594,536.19999694824,661.59997558594,525.69999694824,665.09997558594,517.19999694824,665.59997558594,508.69999694824,668.09997558594,499.19999694824,668.59997558594,476.69999694824,668.09997558594,445.69999694824,660.59997558594,434.19999694824,654.59997558594,429.19999694824,647.59997558594,425.19999694824,634.09997558594,421.19999694824,627.59997558594"></polygon><polygon data-id="12156" data-sec="1" data-build="1" data-floor="4" class="s3d-svg__house js-s3d-svg__house" points="587.19999694824,628.09997558594,595.19999694824,680.59997558594,761.19999694824,678.09997558594,769.19999694824,631.09997558594,851.69999694824,631.59997558594,850.69999694824,581.59997558594,766.19999694824,578.59997558594,759.19999694824,627.59997558594"></polygon><polygon data-id="12155" data-sec="1" data-build="1" data-floor="4" class="s3d-svg__house js-s3d-svg__house" points="850.19999694824,581.09997558594,851.19999694824,633.09997558594,1024.6999969482,631.59997558594,1025.1999969482,580.59997558594"></polygon><polygon data-id="12154" data-sec="1" data-build="1" data-floor="4" class="s3d-svg__house js-s3d-svg__house" points="1025.6999969482,581.09997558594,1025.1999969482,632.59997558594,1190.1999969482,631.09997558594,1194.1999969482,647.59997558594,1257.1999969482,648.59997558594,1262.6999969482,597.59997558594,1201.1999969482,596.09997558594,1194.1999969482,579.59997558594"></polygon><polygon data-id="12153" data-sec="1" data-build="1" data-floor="4" class="s3d-svg__house js-s3d-svg__house" points="1338.6999969482,599.59997558594,1331.6999969482,648.09997558594,1475.6999969482,647.59997558594,1512.6999969482,629.59997558594,1518.1999969482,627.09997558594,1527.1999969482,629.59997558594,1535.6999969482,631.59997558594,1545.6999969482,630.59997558594,1552.6999969482,629.59997558594,1559.1999969482,627.09997558594,1563.6999969482,623.59997558594,1567.1999969482,617.59997558594,1566.6999969482,610.09997558594,1565.6999969482,605.59997558594,1594.1999969482,590.59997558594,1594.1999969482,582.59997558594,1588.1999969482,579.09997558594,1595.6999969482,544.59997558594,1577.1999969482,554.09997558594,1577.6999969482,559.09997558594,1577.1999969482,565.59997558594,1575.1999969482,572.09997558594,1565.1999969482,578.59997558594,1561.1999969482,579.59997558594,1546.1999969482,582.09997558594,1534.6999969482,580.59997558594,1525.1999969482,578.09997558594,1523.6999969482,578.09997558594,1485.6999969482,597.09997558594,1337.6999969482,598.09997558594"></polygon><polygon data-id="12149" data-sec="1" data-build="1" data-floor="3" class="s3d-svg__house js-s3d-svg__house" points="266.19999694824,682.59997558594,277.19999694824,724.09997558594,442.19999694824,721.59997558594,444.19999694824,734.59997558594,450.19999694824,743.59997558594,458.69999694824,749.59997558594,467.19999694824,755.59997558594,477.69999694824,759.59997558594,489.19999694824,760.09997558594,502.19999694824,761.09997558594,522.19999694824,759.59997558594,536.69999694824,756.09997558594,553.19999694824,753.59997558594,563.19999694824,748.59997558594,573.19999694824,743.59997558594,581.19999694824,737.09997558594,589.69999694824,729.59997558594,763.19999694824,725.59997558594,772.19999694824,677.59997558594,852.69999694824,677.09997558594,1187.1999969482,679.09997558594,1191.6999969482,695.09997558594,1465.1999969482,696.09997558594,1510.1999969482,675.09997558594,1520.1999969482,678.59997558594,1531.6999969482,679.59997558594,1541.6999969482,678.09997558594,1550.1999969482,675.09997558594,1554.6999969482,673.09997558594,1557.1999969482,667.09997558594,1557.1999969482,659.59997558594,1559.1999969482,652.09997558594,1559.1999969482,649.09997558594,1584.6999969482,636.09997558594,1586.1999969482,630.09997558594,1580.6999969482,627.59997558594,1585.6999969482,597.59997558594,1566.6999969482,606.09997558594,1568.1999969482,610.09997558594,1568.1999969482,615.59997558594,1565.1999969482,622.09997558594,1563.1999969482,625.59997558594,1558.1999969482,629.09997558594,1548.6999969482,631.59997558594,1536.6999969482,631.59997558594,1527.1999969482,630.59997558594,1518.6999969482,627.09997558594,1513.1999969482,631.09997558594,1475.1999969482,648.59997558594,1331.6999969482,648.59997558594,1257.1999969482,649.59997558594,1194.6999969482,647.59997558594,1189.6999969482,631.59997558594,768.69999694824,632.59997558594,760.69999694824,679.59997558594,595.19999694824,680.09997558594,589.19999694824,686.09997558594,581.19999694824,697.09997558594,571.19999694824,701.59997558594,556.69999694824,709.09997558594,534.69999694824,715.59997558594,498.19999694824,721.59997558594,473.69999694824,719.09997558594,455.19999694824,712.59997558594,442.19999694824,705.59997558594,434.69999694824,694.09997558594,431.19999694824,679.09997558594"></polygon><polygon data-id="12148" data-sec="1" data-build="1" data-floor="2" class="s3d-svg__house js-s3d-svg__house" points="277.19999694824,725.59997558594,249.19999694824,765.09997558594,260.69999694824,810.59997558594,600.69999694824,823.59997558594,603.69999694824,807.59997558594,609.19999694824,807.09997558594,618.69999694824,778.09997558594,766.69999694824,778.09997558594,773.19999694824,743.59997558594,1439.1999969482,744.59997558594,1459.1999969482,743.59997558594,1495.1999969482,725.59997558594,1503.1999969482,723.59997558594,1517.6999969482,725.59997558594,1525.6999969482,725.59997558594,1536.1999969482,723.59997558594,1543.1999969482,717.59997558594,1549.1999969482,713.09997558594,1550.6999969482,704.59997558594,1549.1999969482,697.59997558594,1548.1999969482,695.59997558594,1575.6999969482,683.09997558594,1577.1999969482,675.59997558594,1568.6999969482,673.59997558594,1577.1999969482,642.09997558594,1559.1999969482,648.59997558594,1559.6999969482,652.59997558594,1557.1999969482,658.59997558594,1556.6999969482,667.59997558594,1555.6999969482,673.09997558594,1551.1999969482,675.59997558594,1544.1999969482,678.59997558594,1532.1999969482,680.09997558594,1521.1999969482,679.59997558594,1510.6999969482,675.59997558594,1466.6999969482,696.59997558594,1191.1999969482,696.09997558594,1185.6999969482,679.59997558594,772.69999694824,677.59997558594,762.19999694824,727.59997558594,590.19999694824,730.59997558594,581.19999694824,738.09997558594,573.69999694824,744.09997558594,563.69999694824,749.09997558594,552.19999694824,754.59997558594,537.69999694824,756.59997558594,523.19999694824,760.09997558594,501.69999694824,761.59997558594,489.69999694824,761.09997558594,479.19999694824,761.09997558594,467.19999694824,756.59997558594,457.69999694824,750.59997558594,449.19999694824,744.59997558594,444.19999694824,735.59997558594,441.69999694824,722.59997558594"></polygon><polygon data-id="12147" data-sec="1" data-build="1" data-floor="1" class="s3d-svg__house js-s3d-svg__house" points="451.69999694824,819.59997558594,458.19999694824,857.59997558594,592.69999694824,853.59997558594,598.69999694824,825.59997558594"></polygon><polygon data-id="12146" data-sec="1" data-build="1" data-floor="1" class="s3d-svg__house js-s3d-svg__house" points="619.19999694824,779.90002441406,623.19999694824,810.40002441406,701.69999694824,807.40002441406,704.69999694824,837.90002441406,768.69999694824,836.90002441406,777.19999694824,793.40002441406,773.19999694824,744.90002441406,766.69999694824,777.90002441406,617.69999694824,777.90002441406"></polygon><polygon data-id="12143" data-sec="1" data-build="1" data-floor="1" class="s3d-svg__house js-s3d-svg__house" points="1567.1999969482,689.90002441406,1558.1999969482,737.90002441406,1448.1999969482,798.40002441406,1361.1999969482,799.90002441406,1305.6999969482,800.40002441406,1309.1999969482,745.90002441406,1438.1999969482,745.90002441406,1459.1999969482,744.90002441406,1495.1999969482,727.40002441406,1503.1999969482,724.40002441406,1508.6999969482,724.90002441406,1516.1999969482,727.40002441406,1525.6999969482,726.90002441406,1536.6999969482,723.90002441406,1543.6999969482,719.90002441406,1549.1999969482,713.40002441406,1551.1999969482,705.90002441406,1550.1999969482,699.90002441406,1548.1999969482,696.40002441406,1567.1999969482,688.40002441406"></polygon><polygon data-id="12144" data-sec="1" data-build="1" data-floor="1" class="s3d-svg__house js-s3d-svg__house" points="1243.1999969482,745.40002441406,1240.1999969482,796.40002441406,1098.6999969482,799.90002441406,1019.1999969482,799.90002441406,1021.1999969482,745.40002441406"></polygon><polygon data-id="12145" data-sec="1" data-build="1" data-floor="1" class="s3d-svg__house js-s3d-svg__house" points="773.19999694824,741.90002441406,776.19999694824,794.90002441406,1019.1999969482,800.40002441406,1020.6999969482,744.90002441406"></polygon><polygon data-id="11906" data-sec="1" data-build="1" data-floor="8" class="s3d-svg__house js-s3d-svg__house" points="217.19999694824,453.40002441406,398.69999694824,450.90002441406,398.69999694824,455.90002441406,397.69999694824,461.90002441406,400.19999694824,465.90002441406,407.19999694824,473.90002441406,443.19999694824,484.40002441406,490.69999694824,484.90002441406,533.19999694824,473.40002441406,560.69999694824,461.40002441406,569.69999694824,450.90002441406,573.19999694824,421.40002441406,567.19999694824,339.90002441406,274.19999694824,345.90002441406,276.19999694824,357.90002441406,219.69999694824,422.40002441406,223.19999694824,444.90002441406"></polygon><polygon data-id="11905" data-sec="1" data-build="1" data-floor="8" class="s3d-svg__house js-s3d-svg__house" points="566.69999694824,340.40002441406,573.19999694824,422.90002441406,569.19999694824,451.90002441406,749.69999694824,452.40002441406,758.69999694824,396.90002441406,786.19999694824,396.90002441406,782.69999694824,303.40002441406,629.69999694824,340.40002441406"></polygon><polygon data-id="12175" data-sec="1" data-build="1" data-floor="8" class="s3d-svg__house js-s3d-svg__house" points="781.19999694824,304.40002441406,785.69999694824,396.90002441406,1204.6999969482,400.40002441406,1207.1999969482,303.90002441406"></polygon><polygon data-id="12177" data-sec="1" data-build="1" data-floor="9" class="s3d-svg__house js-s3d-svg__house" points="285.19999694824,303.90002441406,273.19999694824,346.40002441406,567.19999694824,340.40002441406,628.69999694824,340.40002441406,782.19999694824,304.40002441406,1208.1999969482,304.40002441406,1220.1999969482,339.39999389648,1365.1999969482,337.89999389648,1328.1999969482,260.39999389648,1078.6999969482,186.39999389648,1079.1999969482,166.89999389648,984.19999694824,132.89999389648,818.19999694824,127.39999389648,627.19999694824,163.39999389648,625.69999694824,175.89999389648,583.19999694824,185.89999389648,584.69999694824,191.89999389648,343.19999694824,239.89999389648"></polygon></svg>