<svg preserveAspectRatio="xMidYMid slice" id="floor--svg"  viewBox="0 0 1920 1080" version="1.0" xmlns="http://www.w3.org/2000/svg"><polygon data-id="12163" data-sec="1" data-build="1" data-floor="5" class="s3d-svg__house js-s3d-svg__house" points="376.69999694824,581.90002441406,381.19999694824,630.90002441406,374.69999694824,636.40002441406,376.19999694824,648.90002441406,557.19999694824,645.90002441406,585.19999694824,591.90002441406,586.19999694824,590.90002441406,653.19999694824,592.40002441406,650.69999694824,526.40002441406,580.19999694824,526.40002441406,555.19999694824,577.90002441406,376.19999694824,580.40002441406"></polygon><polygon data-id="12168" data-sec="1" data-build="1" data-floor="6" class="s3d-svg__house js-s3d-svg__house" points="362.69999694824,495.90002441406,364.69999694824,508.40002441406,370.69999694824,509.90002441406,374.69999694824,560.90002441406,369.19999694824,567.90002441406,370.19999694824,579.90002441406,555.19999694824,579.40002441406,579.69999694824,527.90002441406,651.19999694824,526.90002441406,647.69999694824,461.40002441406,574.69999694824,462.40002441406,550.69999694824,496.40002441406"></polygon><polygon data-id="12172" data-sec="1" data-build="1" data-floor="7" class="s3d-svg__house js-s3d-svg__house" points="367.69999694824,468.40002441406,363.69999694824,471.40002441406,363.69999694824,478.90002441406,365.19999694824,484.90002441406,369.69999694824,487.40002441406,364.19999694824,494.40002441406,550.19999694824,497.90002441406,574.19999694824,462.90002441406,993.19999694824,461.90002441406,992.19999694824,387.90002441406,584.69999694824,386.40002441406,547.19999694824,401.40002441406,443.19999694824,420.90002441406,426.19999694824,435.40002441406,393.19999694824,436.90002441406,383.69999694824,438.90002441406,375.69999694824,440.90002441406,369.69999694824,441.90002441406,367.19999694824,445.90002441406,367.19999694824,447.90002441406"></polygon><polygon data-id="12153" data-sec="1" data-build="1" data-floor="4" class="s3d-svg__house js-s3d-svg__house" points="383.19999694824,647.79998779297,387.19999694824,694.79998779297,379.69999694824,705.79998779297,381.19999694824,716.29998779297,562.69999694824,715.79998779297,589.19999694824,653.29998779297,654.69999694824,653.29998779297,653.69999694824,591.79998779297,586.19999694824,590.29998779297,557.69999694824,643.79998779297"></polygon><polygon data-id="12149" data-sec="1" data-build="1" data-floor="3" class="s3d-svg__house js-s3d-svg__house" points="389.19999694824,717.20001220703,393.19999694824,762.20001220703,385.69999694824,771.20001220703,388.19999694824,782.70001220703,565.19999694824,782.20001220703,593.69999694824,719.70001220703,1375.1999969482,713.70001220703,1412.6999969482,763.70001220703,1571.6999969482,766.20001220703,1577.1999969482,709.20001220703,1416.6999969482,709.70001220703,1378.6999969482,650.70001220703,589.69999694824,653.70001220703,562.69999694824,716.70001220703"></polygon><polygon data-id="12148" data-sec="1" data-build="1" data-floor="2" class="s3d-svg__house js-s3d-svg__house" points="395.69999694824,784.19995117188,397.69999694824,832.69995117188,392.19999694824,833.69995117188,393.19999694824,847.19995117188,570.69999694824,844.69995117188,594.69999694824,782.19995117188,1371.1999969482,776.19995117188,1403.1999969482,838.19995117188,1417.1999969482,839.19995117188,1417.1999969482,821.19995117188,1425.1999969482,819.19995117188,1432.1999969482,824.69995117188,1528.6999969482,821.69995117188,1531.1999969482,802.19995117188,1544.1999969482,797.69995117188,1563.1999969482,823.69995117188,1567.1999969482,822.19995117188,1572.6999969482,764.69995117188,1412.1999969482,763.69995117188,1374.6999969482,713.69995117188,594.19999694824,717.69995117188,565.19999694824,781.69995117188"></polygon><polygon data-id="12143" data-sec="1" data-build="1" data-floor="1" class="s3d-svg__house js-s3d-svg__house" points="399.19999694824,847.40002441406,405.19999694824,916.40002441406,425.69999694824,919.90002441406,495.19999694824,922.40002441406,489.19999694824,845.90002441406"></polygon><polygon data-id="12177" data-sec="1" data-build="1" data-floor="9" class="s3d-svg__house js-s3d-svg__house" points="545.19999694824,268.90002441406,649.69999694824,281.40002441406,713.19999694824,288.90002441406,1327.1999969482,280.90002441406,1275.1999969482,246.40002441406,1240.6999969482,239.40002441406,1241.1999969482,178.90002441406,1199.1999969482,161.90002441406,999.19999694824,162.40002441406,950.19999694824,168.40002441406,946.19999694824,228.40002441406,792.19999694824,225.39999389648,719.69999694824,216.89999389648,675.19999694824,223.39999389648,677.19999694824,259.39999389648,649.19999694824,253.89999389648"></polygon><polygon data-id="12176" data-sec="1" data-build="1" data-floor="1" class="s3d-svg__house js-s3d-svg__house" points="595.19999694824,789.90002441406,595.19999694824,856.90002441406,723.69999694824,857.90002441406,721.69999694824,782.40002441406,594.69999694824,781.90002441406"></polygon><polygon data-id="12142" data-sec="1" data-build="1" data-floor="1" class="s3d-svg__house js-s3d-svg__house" points="721.69999694824,783.40002441406,723.19999694824,857.90002441406,855.69999694824,856.90002441406,855.19999694824,778.40002441406"></polygon><polygon data-id="12141" data-sec="1" data-build="1" data-floor="1" class="s3d-svg__house js-s3d-svg__house" points="855.19999694824,779.90002441406,856.19999694824,858.40002441406,991.19999694824,856.90002441406,992.69999694824,776.90002441406"></polygon><polygon data-id="12140" data-sec="1" data-build="1" data-floor="1" class="s3d-svg__house js-s3d-svg__house" points="1111.6999969482,775.90002441406,1109.6999969482,855.40002441406,1245.1999969482,855.40002441406,1246.6999969482,774.40002441406"></polygon><polygon data-id="12139" data-sec="1" data-build="1" data-floor="1" class="s3d-svg__house js-s3d-svg__house" points="1245.6999969482,775.90002441406,1244.6999969482,855.90002441406,1363.6999969482,851.90002441406,1371.1999969482,775.40002441406"></polygon><polygon data-id="12152" data-sec="1" data-build="1" data-floor="4" class="s3d-svg__house js-s3d-svg__house" points="652.69999694824,591.79998779297,655.69999694824,653.79998779297,993.69999694824,651.29998779297,995.19999694824,588.79998779297"></polygon><polygon data-id="12151" data-sec="1" data-build="1" data-floor="4" class="s3d-svg__house js-s3d-svg__house" points="995.19999694824,589.90002441406,994.19999694824,652.90002441406,1378.1999969482,649.90002441406,1416.1999969482,709.90002441406,1577.6999969482,708.40002441406,1588.6999969482,628.90002441406,1424.1999969482,632.40002441406,1381.6999969482,585.90002441406"></polygon><polygon data-id="12162" data-sec="1" data-build="1" data-floor="5" class="s3d-svg__house js-s3d-svg__house" points="651.19999694824,526.40002441406,653.19999694824,593.40002441406,995.69999694824,590.40002441406,993.19999694824,525.90002441406"></polygon><polygon data-id="12161" data-sec="1" data-build="1" data-floor="5" class="s3d-svg__house js-s3d-svg__house" points="992.69999694824,526.90002441406,995.19999694824,591.40002441406,1381.1999969482,586.40002441406,1424.1999969482,633.90002441406,1589.1999969482,630.40002441406,1540.6999969482,573.40002441406,1545.6999969482,523.90002441406,1402.1999969482,522.90002441406"></polygon><polygon data-id="12167" data-sec="1" data-build="1" data-floor="6" class="s3d-svg__house js-s3d-svg__house" points="648.69999694824,461.90002441406,651.19999694824,527.90002441406,993.69999694824,526.90002441406,993.69999694824,459.90002441406"></polygon><polygon data-id="12166" data-sec="1" data-build="1" data-floor="6" class="s3d-svg__house js-s3d-svg__house" points="992.69999694824,461.40002441406,993.19999694824,527.90002441406,1401.6999969482,522.90002441406,1546.6999969482,523.90002441406,1521.1999969482,504.40002441406,1522.1999969482,490.90002441406,1487.1999969482,465.90002441406,1411.1999969482,464.40002441406,1411.1999969482,459.90002441406"></polygon><polygon data-id="12171" data-sec="1" data-build="1" data-floor="7" class="s3d-svg__house js-s3d-svg__house" points="992.69999694824,388.90002441406,993.19999694824,461.90002441406,1412.1999969482,460.40002441406,1373.1999969482,387.90002441406"></polygon><polygon data-id="12174" data-sec="1" data-build="1" data-floor="8" class="s3d-svg__house js-s3d-svg__house" points="545.19999694824,356.90002441406,598.69999694824,364.90002441406,590.69999694824,387.90002441406,1372.1999969482,387.90002441406,1327.1999969482,353.40002441406,1327.1999969482,279.90002441406,713.19999694824,286.90002441406,650.69999694824,279.90002441406,545.19999694824,268.40002441406"></polygon></svg>