<svg width="64" height="64" viewBox="0 0 64 64" fill="none" xmlns="http://www.w3.org/2000/svg">
<path d="M17.6005 35.1739L17.6002 35.172C16.7749 28.3019 21.1451 22.2112 27.3615 20.1205C28.2571 19.8592 29.1874 19.4172 29.8619 18.7692C30.5539 18.1711 31.287 17.2839 32.0178 16.0253C32.5351 16.9001 33.0212 17.5985 33.5172 18.1483C34.3528 19.1344 35.3751 19.7622 36.4813 20.1192L36.4833 20.1198C42.2916 21.9671 46.5 27.1774 46.5 33.4075C46.5 41.717 39.0646 48.3033 30.3484 47.4206C23.7133 46.6974 18.3427 41.5605 17.6005 35.1739Z" stroke="#405174"/>
<path d="M31.1241 3.66V9H29.8841V4.72H27.2541V9H26.0041V3.66H31.1241ZM32.8107 3.66H34.0607V5.83H36.7507V3.66H38.0007V9H36.7507V6.89H34.0607V9H32.8107V3.66Z" fill="#405174"/>
<path d="M31.1485 56.66V62H29.9085V57.72H27.2785V62H26.0285V56.66H31.1485ZM38.5351 60.94V63.19H37.3651V62H33.2451V63.19H32.0851V60.94H32.3351C32.6751 60.9267 32.9051 60.71 33.0251 60.29C33.1518 59.8633 33.2351 59.2633 33.2751 58.49L33.3451 56.66H37.7451V60.94H38.5351ZM34.4151 58.58C34.3885 59.1933 34.3385 59.6933 34.2651 60.08C34.1918 60.4667 34.0585 60.7533 33.8651 60.94H36.4951V57.72H34.4451L34.4151 58.58Z" fill="#405174"/>
<path d="M4.43918 33.22C4.77251 33.3133 5.02918 33.4667 5.20918 33.68C5.39585 33.8867 5.48918 34.1367 5.48918 34.43C5.48918 34.7567 5.37918 35.0467 5.15918 35.3C4.93918 35.5467 4.63585 35.74 4.24918 35.88C3.86251 36.02 3.42251 36.09 2.92918 36.09C2.51585 36.09 2.11251 36.0433 1.71918 35.95C1.32585 35.85 0.96918 35.71 0.64918 35.53L1.00918 34.6C1.26918 34.7467 1.56251 34.86 1.88918 34.94C2.21585 35.02 2.54251 35.06 2.86918 35.06C3.28918 35.06 3.61585 34.9967 3.84918 34.87C4.08918 34.7367 4.20918 34.5567 4.20918 34.33C4.20918 34.1233 4.11585 33.9633 3.92918 33.85C3.74918 33.7367 3.49251 33.68 3.15918 33.68H2.11918V32.84H3.05918C3.37251 32.84 3.61585 32.7867 3.78918 32.68C3.96918 32.5733 4.05918 32.4233 4.05918 32.23C4.05918 32.0367 3.95251 31.8833 3.73918 31.77C3.52585 31.6567 3.23251 31.6 2.85918 31.6C2.32585 31.6 1.76251 31.73 1.16918 31.99L0.84918 31.07C1.54918 30.7433 2.25585 30.58 2.96918 30.58C3.42251 30.58 3.82918 30.6433 4.18918 30.77C4.54918 30.89 4.82918 31.0633 5.02918 31.29C5.23585 31.51 5.33918 31.7633 5.33918 32.05C5.33918 32.31 5.25918 32.5433 5.09918 32.75C4.93918 32.95 4.71918 33.1067 4.43918 33.22ZM10.1263 36L8.75629 34.15L7.37629 36H5.99629L8.07629 33.29L6.08629 30.66H7.47629L8.78629 32.41L10.0963 30.66H11.4463L9.44629 33.27L11.5363 36H10.1263Z" fill="#405174"/>
<path d="M55.6157 36.07C55.0624 36.07 54.5657 35.9533 54.1257 35.72C53.6857 35.4867 53.3424 35.1633 53.0957 34.75C52.849 34.33 52.7257 33.8567 52.7257 33.33C52.7257 32.8033 52.849 32.3333 53.0957 31.92C53.3424 31.5067 53.6824 31.1833 54.1157 30.95C54.5557 30.7167 55.0557 30.6 55.6157 30.6C56.1424 30.6 56.6024 30.7067 56.9957 30.92C57.3957 31.1333 57.6957 31.44 57.8957 31.84L56.9357 32.4C56.7824 32.1533 56.589 31.97 56.3557 31.85C56.129 31.7233 55.879 31.66 55.6057 31.66C55.139 31.66 54.7524 31.8133 54.4457 32.12C54.139 32.42 53.9857 32.8233 53.9857 33.33C53.9857 33.8367 54.1357 34.2433 54.4357 34.55C54.7424 34.85 55.1324 35 55.6057 35C55.879 35 56.129 34.94 56.3557 34.82C56.589 34.6933 56.7824 34.5067 56.9357 34.26L57.8957 34.82C57.689 35.22 57.3857 35.53 56.9857 35.75C56.5924 35.9633 56.1357 36.07 55.6157 36.07ZM62.1898 36L60.8198 34.15L59.4398 36H58.0598L60.1398 33.29L58.1498 30.66H59.5398L60.8498 32.41L62.1598 30.66H63.5098L61.5098 33.27L63.5998 36H62.1898Z" fill="#405174"/>
</svg>
